{"title":"Fake Taxi - Nataly","uid":9253728,"size":254022901,"categoryP":"porn","categoryS":"movie_clips","magnet":"?xt=urn:btih:1a8dd854ebe8d9112f4adf896405a248da9d6575&amp;dn=Fake+Taxi+-+Nataly&amp;tr=udp%3A%2F%2Ftracker.openbittorrent.com%3A80&amp;tr=udp%3A%2F%2Fopen.demonii.com%3A1337&amp;tr=udp%3A%2F%2Ftracker.coppersurfer.tk%3A6969&amp;tr=udp%3A%2F%2Fexodus.desync.com%3A6969","seeders":0,"leechers":2,"uploader":null,"files":2,"time":1385512997,"description":" &lt;a href=&quot;http://bayimg.com/IaCPKAaFP&quot; rel=&quot;nofollow&quot; target=&quot;_NEW&quot;&gt;http://bayimg.com/IaCPKAaFP&lt;/a&gt;\n\nAnother young lady on her way to the airport I told her that I've not been a taxi driver for very long in Budapest, then I pretend to get lost and I tell her unless she sucks my cock she can get out..\nFormat : MPEG-4\nFormat profile : Base Media\nCodec ID : isom\nFile size : 241 MiB\nDuration : 11mn 24s\nOverall bit rate : 2 956 Kbps\nWriting application : Lavf54.29.104\n\nVideo\nID : 1\nFormat : AVC\nFormat/Info : Advanced Video Codec\nFormat profile : &lt;a class=&quot;__cf_email__&quot; href=&quot;/cdn-cgi/l/email-protection&quot; data-cfemail=&quot;5e163739361e126d706e&quot;&gt;[email&amp;#160;protected]&lt;/a&gt;&lt;script cf-hash='f9e31' type=&quot;text/javascript&quot;&gt;\n/* &lt;![CDATA[ */!function(){try{var t=&quot;currentScript&quot;in document?document.currentScript:function(){for(var t=document.getElementsByTagName(&quot;script&quot;),e=t.length;e--;)if(t[e].getAttribute(&quot;cf-hash&quot;))return t[e]}();if(t&amp;&amp;t.previousSibling){var e,r,n,i,c=t.previousSibling,a=c.getAttribute(&quot;data-cfemail&quot;);if(a){for(e=&quot;&quot;,r=parseInt(a.substr(0,2),16),n=2;a.length-n;n+=2)i=parseInt(a.substr(n,2),16)^r,e+=String.fromCharCode(i);e=document.createTextNode(e),c.parentNode.replaceChild(e,c)}}}catch(u){}}();/* ]]&gt; */&lt;/script&gt;\nFormat settings, CABAC : Yes\nFormat settings, ReFrames : 4 frames\nCodec ID : avc1\nCodec ID/Info : Advanced Video Coding\nDuration : 11mn 24s\nBit rate : 2 700 Kbps\nWidth : 852 pixels\nHeight : 480 pixels\nDisplay aspect ratio : 16:9\nFrame rate mode : Constant\nFrame rate : 24.000 fps\nColor space : YUV\nChroma subsampling : 4:2:0\nBit depth : 8 bits\nScan type : Progressive\nBits/(Pixel*Frame) : 0.275\nStream size : 220 MiB (91%)\nWriting library : x264 core 120\nEncoding settings : cabac=1 / ref=1 / deblock=1:0:0 / analyse=0x3:0x113 / me=hex / subme=2 / psy=1 / psy_rd=1.00:0.00 / mixed_ref=0 / me_range=16 / chroma_me=1 / trellis=0 / 8x8dct=1 / cqm=0 / deadzone=21,11 / fast_pskip=1 / chroma_qp_offset=0 / threads=48 / sliced_threads=0 / nr=0 / decimate=1 / interlaced=0 / bluray_compat=0 / constrained_intra=0 / bframes=3 / b_pyramid=2 / b_adapt=1 / b_bias=0 / direct=1 / weightb=1 / open_gop=0 / weightp=1 / keyint=48 / keyint_min=4 / scenecut=40 / intra_refresh=0 / rc_lookahead=10 / rc=abr / mbtree=1 / bitrate=2700 / ratetol=1.0 / qcomp=0.60 / qpmin=0 / qpmax=69 / qpstep=4 / ip_ratio=1.40 / aq=1:1.00\nLanguage : English\nTagged date : UTC 2013-11-18 14:11:21\n\nAudio\nID : 2\nFormat : AAC\nFormat/Info : Advanced Audio Codec\nFormat profile : LC\nCodec ID : 40\nDuration : 11mn 24s\nBit rate mode : Constant\nBit rate : 128 Kbps\nChannel(s) : 2 channels\nChannel positions : Front: L R\nSampling rate : 44.1 KHz\nCompression mode : Lossy\nStream size : 10.4 MiB (4%)\nLanguage : English\nTagged date : UTC 2013-11-18 14:11:21","torrent":{"xt":"urn:btih:1a8dd854ebe8d9112f4adf896405a248da9d6575","amp;dn":"Fake+Taxi+-+Nataly","amp;tr":["udp%3A%2F%2Ftracker.openbittorrent.com%3A80","udp%3A%2F%2Fopen.demonii.com%3A1337","udp%3A%2F%2Ftracker.coppersurfer.tk%3A6969","udp%3A%2F%2Fexodus.desync.com%3A6969"],"infoHash":"1a8dd854ebe8d9112f4adf896405a248da9d6575","infoHashBuffer":{"type":"Buffer","data":[26,141,216,84,235,232,217,17,47,74,223,137,100,5,162,72,218,157,101,117]},"announce":[],"urlList":[]}}